# xmcd
#
# Track frame offsets:
#	150
#	14496
#	30814
#	47410
#	66956
#	81603
#	93430
#	108637
#	124223
#	134739
#	150970
#	163594
#	174121
#	187003
#	204273
#	219456
#	238295
#	250960
#
# Disc length: 3544 seconds
#
# Revision: 0
# Processed by: cddbd v1.5.1PL0 Copyright (c) Steve Scherf et al.
# Submitted via: dBpowerAMP V4.0
#
DISCID=f70dd612
DTITLE=Dean Brothers - Family Album Vol 2
DYEAR=1900
DGENRE=
TTITLE0=Tonight The Bottle Let Me Down
TTITLE1=Lyin Cheatin
TTITLE2=Livin On Love
TTITLE3=I Don't Know
TTITLE4=Third Rate Romance
TTITLE5=Stay Out Of My Arms
TTITLE6=Foolish Heart
TTITLE7=Good Year For The Roses
TTITLE8=See You In My dreams
TTITLE9=Three Words
TTITLE10=Playin Possum
TTITLE11=From A Jack To a King
TTITLE12=Love Bug
TTITLE13=Honest I Do
TTITLE14=Cowboy Rides Away
TTITLE15=Don't Close Your Eyes
TTITLE16=Bring It On
TTITLE17=Ring Of Fire
EXTD=
EXTT0=
EXTT1=
EXTT2=
EXTT3=
EXTT4=
EXTT5=
EXTT6=
EXTT7=
EXTT8=
EXTT9=
EXTT10=
EXTT11=
EXTT12=
EXTT13=
EXTT14=
EXTT15=
EXTT16=
EXTT17=
PLAYORDER=
